NotoSansOldNorthArabian-Regular.ufo
<glyph name="u10A80" format="2">
  <advance width="626"/>
  <unicode hex="10A80"/>
  <outline>
    <contour>
      <point x="503" y="-15" type="curve" smooth="yes"/>
      <point x="541" y="-15"/>
      <point x="546" y="0"/>
      <point x="546" y="36" type="curve" smooth="yes"/>
      <point x="546" y="276" type="line" smooth="yes"/>
      <point x="546" y="335"/>
      <point x="534" y="413"/>
      <point x="445" y="468" type="curve" smooth="yes"/>
      <point x="104" y="678" type="line" smooth="yes"/>
      <point x="91" y="686"/>
      <point x="80" y="690"/>
      <point x="71" y="690" type="curve" smooth="yes"/>
      <point x="59" y="690"/>
      <point x="50" y="685"/>
      <point x="39" y="668" type="curve" smooth="yes"/>
      <point x="33" y="659"/>
      <point x="30" y="650"/>
      <point x="30" y="643" type="curve" smooth="yes"/>
      <point x="30" y="630"/>
      <point x="40" y="618"/>
      <point x="60" y="606" type="curve" smooth="yes"/>
      <point x="221" y="505" type="line"/>
      <point x="143" y="307" type="line" smooth="yes"/>
      <point x="138" y="295"/>
      <point x="135" y="287"/>
      <point x="135" y="278" type="curve" smooth="yes"/>
      <point x="135" y="258"/>
      <point x="164" y="244"/>
      <point x="185" y="244" type="curve" smooth="yes"/>
      <point x="206" y="244"/>
      <point x="212" y="256"/>
      <point x="219" y="274" type="curve" smooth="yes"/>
      <point x="291" y="460" type="line"/>
      <point x="397" y="394" type="line" smooth="yes"/>
      <point x="435" y="370"/>
      <point x="458" y="336"/>
      <point x="458" y="267" type="curve" smooth="yes"/>
      <point x="458" y="36" type="line" smooth="yes"/>
      <point x="458" y="0"/>
      <point x="464" y="-15"/>
    </contour>
  </outline>
</glyph>
<glyph name="u10A81" format="2">
  <advance width="630"/>
  <unicode hex="10A81"/>
  <outline>
    <contour>
      <point x="81" y="-15" type="curve" smooth="yes"/>
      <point x="97" y="-15"/>
      <point x="104" y="-2"/>
      <point x="113" y="18" type="curve" smooth="yes"/>
      <point x="289" y="417" type="line" smooth="yes"/>
      <point x="336" y="523"/>
      <point x="376" y="610"/>
      <point x="440" y="610" type="curve" smooth="yes"/>
      <point x="481" y="610"/>
      <point x="504" y="586"/>
      <point x="504" y="520" type="curve" smooth="yes"/>
      <point x="504" y="474"/>
      <point x="490" y="409"/>
      <point x="475" y="359" type="curve" smooth="yes"/>
      <point x="465" y="326"/>
      <point x="458" y="301"/>
      <point x="458" y="287" type="curve" smooth="yes"/>
      <point x="458" y="266"/>
      <point x="475" y="256"/>
      <point x="501" y="256" type="curve" smooth="yes"/>
      <point x="525" y="256"/>
      <point x="536" y="264"/>
      <point x="544" y="284" type="curve" smooth="yes"/>
      <point x="574" y="363"/>
      <point x="590" y="487"/>
      <point x="590" y="520" type="curve" smooth="yes"/>
      <point x="590" y="628"/>
      <point x="542" y="690"/>
      <point x="441" y="690" type="curve" smooth="yes"/>
      <point x="334" y="690"/>
      <point x="282" y="604"/>
      <point x="211" y="446" type="curve" smooth="yes"/>
      <point x="35" y="54" type="line" smooth="yes"/>
      <point x="29" y="40"/>
      <point x="25" y="30"/>
      <point x="25" y="23" type="curve" smooth="yes"/>
      <point x="25" y="7"/>
      <point x="36" y="-2"/>
      <point x="52" y="-9" type="curve" smooth="yes"/>
      <point x="62" y="-13"/>
      <point x="71" y="-15"/>
    </contour>
  </outline>
</glyph>
<glyph name="u10A82" format="2">
  <advance width="793"/>
  <unicode hex="10A82"/>
  <outline>
    <contour>
      <point x="398" y="-15" type="curve" smooth="yes"/>
      <point x="436" y="-15"/>
      <point x="441" y="0"/>
      <point x="441" y="36" type="curve" smooth="yes"/>
      <point x="441" y="207"/>
      <point x="439" y="380"/>
      <point x="436" y="551" type="curve"/>
      <point x="677" y="19" type="line" smooth="yes"/>
      <point x="685" y="2"/>
      <point x="694" y="-7"/>
      <point x="711" y="-7" type="curve" smooth="yes"/>
      <point x="723" y="-7"/>
      <point x="730" y="-5"/>
      <point x="738" y="-2" type="curve" smooth="yes"/>
      <point x="754" y="4"/>
      <point x="763" y="14"/>
      <point x="763" y="28" type="curve" smooth="yes"/>
      <point x="763" y="38"/>
      <point x="759" y="48"/>
      <point x="756" y="54" type="curve" smooth="yes"/>
      <point x="469" y="645" type="line" smooth="yes"/>
      <point x="450" y="685"/>
      <point x="429" y="695"/>
      <point x="398" y="695" type="curve" smooth="yes"/>
      <point x="367" y="695"/>
      <point x="346" y="685"/>
      <point x="326" y="645" type="curve" smooth="yes"/>
      <point x="37" y="54" type="line" smooth="yes"/>
      <point x="34" y="48"/>
      <point x="30" y="38"/>
      <point x="30" y="28" type="curve" smooth="yes"/>
      <point x="30" y="14"/>
      <point x="39" y="4"/>
      <point x="55" y="-2" type="curve" smooth="yes"/>
      <point x="63" y="-5"/>
      <point x="70" y="-7"/>
      <point x="82" y="-7" type="curve" smooth="yes"/>
      <point x="99" y="-7"/>
      <point x="108" y="2"/>
      <point x="116" y="19" type="curve" smooth="yes"/>
      <point x="357" y="550" type="line"/>
      <point x="354" y="379"/>
      <point x="353" y="207"/>
      <point x="353" y="36" type="curve" smooth="yes"/>
      <point x="353" y="0"/>
      <point x="359" y="-15"/>
    </contour>
  </outline>
</glyph>
<glyph name="u10A83" format="2">
  <advance width="656"/>
  <unicode hex="10A83"/>
  <outline>
    <contour>
      <point x="87" y="-15" type="curve" smooth="yes"/>
      <point x="112" y="-15"/>
      <point x="123" y="0"/>
      <point x="140" y="25" type="curve" smooth="yes"/>
      <point x="202" y="117"/>
      <point x="239" y="339"/>
      <point x="247" y="437" type="curve" smooth="yes"/>
      <point x="253" y="512"/>
      <point x="264" y="610"/>
      <point x="384" y="610" type="curve" smooth="yes"/>
      <point x="482" y="610"/>
      <point x="508" y="535"/>
      <point x="508" y="460" type="curve" smooth="yes"/>
      <point x="508" y="284"/>
      <point x="394" y="87"/>
      <point x="374" y="54" type="curve" smooth="yes"/>
      <point x="367" y="42"/>
      <point x="363" y="33"/>
      <point x="363" y="22" type="curve" smooth="yes"/>
      <point x="363" y="-1"/>
      <point x="387" y="-15"/>
      <point x="413" y="-15" type="curve" smooth="yes"/>
      <point x="437" y="-15"/>
      <point x="449" y="1"/>
      <point x="463" y="24" type="curve" smooth="yes"/>
      <point x="526" y="128"/>
      <point x="596" y="320"/>
      <point x="596" y="469" type="curve" smooth="yes"/>
      <point x="596" y="621"/>
      <point x="500" y="690"/>
      <point x="377" y="690" type="curve" smooth="yes"/>
      <point x="191" y="690"/>
      <point x="171" y="554"/>
      <point x="161" y="447" type="curve" smooth="yes"/>
      <point x="150" y="325"/>
      <point x="131" y="179"/>
      <point x="66" y="80" type="curve" smooth="yes"/>
      <point x="51" y="58"/>
      <point x="40" y="38"/>
      <point x="40" y="26" type="curve" smooth="yes"/>
      <point x="40" y="3"/>
      <point x="60" y="-15"/>
    </contour>
  </outline>
</glyph>
<glyph name="u10A84" format="2">
  <advance width="487"/>
  <unicode hex="10A84"/>
  <outline>
    <contour>
      <point x="242" y="-15" type="curve" smooth="yes"/>
      <point x="280" y="-15"/>
      <point x="285" y="0"/>
      <point x="285" y="36" type="curve" smooth="yes"/>
      <point x="285" y="237" type="line"/>
      <point x="362" y="256"/>
      <point x="419" y="325"/>
      <point x="419" y="411" type="curve" smooth="yes"/>
      <point x="419" y="461"/>
      <point x="400" y="505"/>
      <point x="369" y="537" type="curve"/>
      <point x="440" y="629" type="line" smooth="yes"/>
      <point x="446" y="637"/>
      <point x="447" y="645"/>
      <point x="447" y="652" type="curve" smooth="yes"/>
      <point x="447" y="676"/>
      <point x="423" y="690"/>
      <point x="402" y="690" type="curve" smooth="yes"/>
      <point x="392" y="690"/>
      <point x="384" y="687"/>
      <point x="378" y="679" type="curve" smooth="yes"/>
      <point x="301" y="580" type="line"/>
      <point x="282" y="587"/>
      <point x="261" y="591"/>
      <point x="239" y="591" type="curve" smooth="yes"/>
      <point x="140" y="591"/>
      <point x="60" y="514"/>
      <point x="60" y="411" type="curve" smooth="yes"/>
      <point x="60" y="323"/>
      <point x="118" y="254"/>
      <point x="197" y="236" type="curve"/>
      <point x="197" y="36" type="line" smooth="yes"/>
      <point x="197" y="0"/>
      <point x="203" y="-15"/>
    </contour>
    <contour>
      <point x="239" y="311" type="curve" smooth="yes"/>
      <point x="185" y="311"/>
      <point x="143" y="350"/>
      <point x="143" y="411" type="curve" smooth="yes"/>
      <point x="143" y="472"/>
      <point x="185" y="511"/>
      <point x="239" y="511" type="curve" smooth="yes"/>
      <point x="292" y="511"/>
      <point x="335" y="472"/>
      <point x="335" y="411" type="curve" smooth="yes"/>
      <point x="335" y="350"/>
      <point x="292" y="311"/>
    </contour>
  </outline>
</glyph>
<glyph name="u10A85" format="2">
  <advance width="795"/>
  <unicode hex="10A85"/>
  <outline>
    <contour>
      <point x="397" y="-15" type="curve" smooth="yes"/>
      <point x="602" y="-15"/>
      <point x="745" y="140"/>
      <point x="745" y="332" type="curve" smooth="yes"/>
      <point x="745" y="524"/>
      <point x="596" y="680"/>
      <point x="397" y="680" type="curve" smooth="yes"/>
      <point x="197" y="680"/>
      <point x="50" y="524"/>
      <point x="50" y="332" type="curve" smooth="yes"/>
      <point x="50" y="140"/>
      <point x="197" y="-15"/>
    </contour>
    <contour>
      <point x="356" y="67" type="line"/>
      <point x="225" y="87"/>
      <point x="138" y="193"/>
      <point x="138" y="332" type="curve" smooth="yes"/>
      <point x="138" y="461"/>
      <point x="222" y="576"/>
      <point x="356" y="596" type="curve"/>
    </contour>
    <contour>
      <point x="439" y="67" type="curve"/>
      <point x="439" y="596" type="line"/>
      <point x="573" y="577"/>
      <point x="657" y="462"/>
      <point x="657" y="332" type="curve" smooth="yes"/>
      <point x="657" y="194"/>
      <point x="566" y="85"/>
    </contour>
  </outline>
</glyph>
<glyph name="u10A86" format="2">
  <advance width="433"/>
  <unicode hex="10A86"/>
  <outline>
    <contour>
      <point x="100" y="-15" type="curve" smooth="yes"/>
      <point x="115" y="-15"/>
      <point x="130" y="-6"/>
      <point x="133" y="-4" type="curve"/>
      <point x="332" y="115" type="line" smooth="yes"/>
      <point x="355" y="129"/>
      <point x="369" y="141"/>
      <point x="369" y="172" type="curve" smooth="yes"/>
      <point x="369" y="206"/>
      <point x="354" y="217"/>
      <point x="332" y="230" type="curve" smooth="yes"/>
      <point x="155" y="339" type="line"/>
      <point x="333" y="453" type="line" smooth="yes"/>
      <point x="354" y="467"/>
      <point x="373" y="480"/>
      <point x="373" y="511" type="curve" smooth="yes"/>
      <point x="373" y="546"/>
      <point x="351" y="560"/>
      <point x="333" y="570" type="curve" smooth="yes"/>
      <point x="137" y="679" type="line" smooth="yes"/>
      <point x="130" y="683"/>
      <point x="117" y="690"/>
      <point x="103" y="690" type="curve" smooth="yes"/>
      <point x="80" y="690"/>
      <point x="63" y="669"/>
      <point x="63" y="646" type="curve" smooth="yes"/>
      <point x="63" y="622"/>
      <point x="80" y="612"/>
      <point x="92" y="606" type="curve" smooth="yes"/>
      <point x="280" y="510" type="line"/>
      <point x="92" y="390" type="line" smooth="yes"/>
      <point x="74" y="379"/>
      <point x="60" y="365"/>
      <point x="60" y="338" type="curve" smooth="yes"/>
      <point x="60" y="309"/>
      <point x="73" y="297"/>
      <point x="92" y="285" type="curve" smooth="yes"/>
      <point x="276" y="173" type="line"/>
      <point x="84" y="64" type="line" smooth="yes"/>
      <point x="69" y="55"/>
      <point x="61" y="43"/>
      <point x="61" y="28" type="curve" smooth="yes"/>
      <point x="61" y="8"/>
      <point x="77" y="-15"/>
    </contour>
  </outline>
</glyph>
<glyph name="u10A87" format="2">
  <advance width="475"/>
  <unicode hex="10A87"/>
  <outline>
    <contour>
      <point x="100" y="-15" type="curve" smooth="yes"/>
      <point x="282" y="-15"/>
      <point x="425" y="140"/>
      <point x="425" y="343" type="curve" smooth="yes"/>
      <point x="425" y="554"/>
      <point x="282" y="690"/>
      <point x="93" y="690" type="curve" smooth="yes"/>
      <point x="66" y="690"/>
      <point x="50" y="675"/>
      <point x="50" y="652" type="curve" smooth="yes"/>
      <point x="50" y="629"/>
      <point x="63" y="615"/>
      <point x="91" y="612" type="curve" smooth="yes"/>
      <point x="238" y="597"/>
      <point x="337" y="516"/>
      <point x="337" y="341" type="curve" smooth="yes"/>
      <point x="337" y="191"/>
      <point x="233" y="83"/>
      <point x="98" y="67" type="curve" smooth="yes"/>
      <point x="63" y="63"/>
      <point x="50" y="49"/>
      <point x="50" y="24" type="curve" smooth="yes"/>
      <point x="50" y="0"/>
      <point x="63" y="-15"/>
    </contour>
  </outline>
</glyph>
<glyph name="u10A88" format="2">
  <advance width="733"/>
  <unicode hex="10A88"/>
  <outline>
    <contour>
      <point x="219" y="-15" type="curve" smooth="yes"/>
      <point x="246" y="-15"/>
      <point x="257" y="-3"/>
      <point x="257" y="14" type="curve" smooth="yes"/>
      <point x="257" y="21"/>
      <point x="256" y="29"/>
      <point x="253" y="41" type="curve" smooth="yes"/>
      <point x="130" y="585" type="line"/>
      <point x="608" y="585" type="line"/>
      <point x="485" y="41" type="line" smooth="yes"/>
      <point x="482" y="29"/>
      <point x="481" y="21"/>
      <point x="481" y="14" type="curve" smooth="yes"/>
      <point x="481" y="-3"/>
      <point x="492" y="-15"/>
      <point x="519" y="-15" type="curve" smooth="yes"/>
      <point x="558" y="-15"/>
      <point x="564" y="0"/>
      <point x="572" y="36" type="curve" smooth="yes"/>
      <point x="695" y="596" type="line" smooth="yes"/>
      <point x="698" y="609"/>
      <point x="703" y="631"/>
      <point x="703" y="640" type="curve" smooth="yes"/>
      <point x="703" y="662"/>
      <point x="685" y="665"/>
      <point x="664" y="665" type="curve" smooth="yes"/>
      <point x="70" y="665" type="line" smooth="yes"/>
      <point x="49" y="665"/>
      <point x="30" y="662"/>
      <point x="30" y="637" type="curve" smooth="yes"/>
      <point x="30" y="633"/>
      <point x="33" y="616"/>
      <point x="39" y="590" type="curve" smooth="yes"/>
      <point x="166" y="36" type="line" smooth="yes"/>
      <point x="174" y="0"/>
      <point x="180" y="-15"/>
    </contour>
  </outline>
</glyph>
<glyph name="u10A89" format="2">
  <advance width="671"/>
  <unicode hex="10A89"/>
  <outline>
    <contour>
      <point x="108" y="-13" type="curve" smooth="yes"/>
      <point x="122" y="-13"/>
      <point x="131" y="-4"/>
      <point x="141" y="10" type="curve" smooth="yes"/>
      <point x="336" y="270" type="line"/>
      <point x="530" y="10" type="line" smooth="yes"/>
      <point x="540" y="-4"/>
      <point x="549" y="-13"/>
      <point x="563" y="-13" type="curve" smooth="yes"/>
      <point x="573" y="-13"/>
      <point x="581" y="-9"/>
      <point x="591" y="-2" type="curve" smooth="yes"/>
      <point x="603" y="6"/>
      <point x="611" y="17"/>
      <point x="611" y="28" type="curve" smooth="yes"/>
      <point x="611" y="38"/>
      <point x="604" y="49"/>
      <point x="594" y="62" type="curve" smooth="yes"/>
      <point x="387" y="339" type="line"/>
      <point x="594" y="615" type="line" smooth="yes"/>
      <point x="604" y="628"/>
      <point x="611" y="639"/>
      <point x="611" y="649" type="curve" smooth="yes"/>
      <point x="611" y="660"/>
      <point x="603" y="671"/>
      <point x="591" y="679" type="curve" smooth="yes"/>
      <point x="581" y="686"/>
      <point x="573" y="690"/>
      <point x="563" y="690" type="curve" smooth="yes"/>
      <point x="549" y="690"/>
      <point x="540" y="681"/>
      <point x="530" y="667" type="curve" smooth="yes"/>
      <point x="336" y="407" type="line"/>
      <point x="141" y="667" type="line" smooth="yes"/>
      <point x="131" y="681"/>
      <point x="122" y="690"/>
      <point x="108" y="690" type="curve" smooth="yes"/>
      <point x="98" y="690"/>
      <point x="90" y="686"/>
      <point x="80" y="679" type="curve" smooth="yes"/>
      <point x="68" y="671"/>
      <point x="60" y="660"/>
      <point x="60" y="649" type="curve" smooth="yes"/>
      <point x="60" y="639"/>
      <point x="67" y="628"/>
      <point x="77" y="615" type="curve" smooth="yes"/>
      <point x="284" y="339" type="line"/>
      <point x="77" y="62" type="line" smooth="yes"/>
      <point x="67" y="49"/>
      <point x="60" y="38"/>
      <point x="60" y="28" type="curve" smooth="yes"/>
      <point x="60" y="17"/>
      <point x="68" y="6"/>
      <point x="80" y="-2" type="curve" smooth="yes"/>
      <point x="90" y="-9"/>
      <point x="98" y="-13"/>
    </contour>
  </outline>
</glyph>
<glyph name="u10A8A" format="2">
  <advance width="704"/>
  <unicode hex="10A8A"/>
  <outline>
    <contour>
      <point x="195" y="-15" type="curve" smooth="yes"/>
      <point x="226" y="-15"/>
      <point x="237" y="-3"/>
      <point x="237" y="14" type="curve" smooth="yes"/>
      <point x="237" y="21"/>
      <point x="236" y="29"/>
      <point x="233" y="41" type="curve" smooth="yes"/>
      <point x="136" y="467" type="line"/>
      <point x="568" y="467" type="line"/>
      <point x="472" y="41" type="line" smooth="yes"/>
      <point x="469" y="29"/>
      <point x="468" y="21"/>
      <point x="468" y="14" type="curve" smooth="yes"/>
      <point x="468" y="-3"/>
      <point x="479" y="-15"/>
      <point x="509" y="-15" type="curve" smooth="yes"/>
      <point x="545" y="-15"/>
      <point x="551" y="0"/>
      <point x="559" y="36" type="curve" smooth="yes"/>
      <point x="657" y="474" type="line" smooth="yes"/>
      <point x="661" y="490"/>
      <point x="664" y="505"/>
      <point x="664" y="519" type="curve" smooth="yes"/>
      <point x="664" y="544"/>
      <point x="645" y="547"/>
      <point x="624" y="547" type="curve" smooth="yes"/>
      <point x="395" y="547" type="line"/>
      <point x="395" y="639" type="line" smooth="yes"/>
      <point x="395" y="675"/>
      <point x="390" y="690"/>
      <point x="354" y="690" type="curve" smooth="yes"/>
      <point x="317" y="690"/>
      <point x="311" y="675"/>
      <point x="311" y="639" type="curve" smooth="yes"/>
      <point x="311" y="547" type="line"/>
      <point x="80" y="547" type="line" smooth="yes"/>
      <point x="55" y="547"/>
      <point x="40" y="539"/>
      <point x="40" y="516" type="curve" smooth="yes"/>
      <point x="40" y="503"/>
      <point x="43" y="488"/>
      <point x="46" y="474" type="curve" smooth="yes"/>
      <point x="146" y="36" type="line" smooth="yes"/>
      <point x="154" y="0"/>
      <point x="160" y="-15"/>
    </contour>
  </outline>
</glyph>
<glyph name="u10A8B" format="2">
  <advance width="704"/>
  <unicode hex="10A8B"/>
  <outline>
    <contour>
      <point x="196" y="-15" type="curve" smooth="yes"/>
      <point x="226" y="-15"/>
      <point x="237" y="-3"/>
      <point x="237" y="14" type="curve" smooth="yes"/>
      <point x="237" y="21"/>
      <point x="236" y="29"/>
      <point x="233" y="41" type="curve" smooth="yes"/>
      <point x="136" y="467" type="line"/>
      <point x="568" y="467" type="line"/>
      <point x="472" y="41" type="line" smooth="yes"/>
      <point x="469" y="29"/>
      <point x="468" y="21"/>
      <point x="468" y="14" type="curve" smooth="yes"/>
      <point x="468" y="-3"/>
      <point x="479" y="-15"/>
      <point x="512" y="-15" type="curve" smooth="yes"/>
      <point x="545" y="-15"/>
      <point x="551" y="0"/>
      <point x="559" y="36" type="curve" smooth="yes"/>
      <point x="657" y="474" type="line" smooth="yes"/>
      <point x="661" y="490"/>
      <point x="664" y="505"/>
      <point x="664" y="519" type="curve" smooth="yes"/>
      <point x="664" y="544"/>
      <point x="645" y="547"/>
      <point x="624" y="547" type="curve" smooth="yes"/>
      <point x="158" y="547" type="line"/>
      <point x="225" y="626" type="line" smooth="yes"/>
      <point x="233" y="636"/>
      <point x="235" y="644"/>
      <point x="235" y="651" type="curve" smooth="yes"/>
      <point x="235" y="667"/>
      <point x="214" y="690"/>
      <point x="190" y="690" type="curve" smooth="yes"/>
      <point x="177" y="690"/>
      <point x="170" y="685"/>
      <point x="163" y="677" type="curve" smooth="yes"/>
      <point x="51" y="545" type="line"/>
      <point x="44" y="536"/>
      <point x="40" y="527"/>
      <point x="40" y="516" type="curve" smooth="yes"/>
      <point x="40" y="503"/>
      <point x="43" y="488"/>
      <point x="46" y="474" type="curve" smooth="yes"/>
      <point x="146" y="36" type="line" smooth="yes"/>
      <point x="154" y="0"/>
      <point x="160" y="-15"/>
    </contour>
  </outline>
</glyph>
<glyph name="u10A8C" format="2">
  <advance width="437"/>
  <unicode hex="10A8C"/>
  <outline>
    <contour>
      <point x="338" y="-15" type="curve" smooth="yes"/>
      <point x="353" y="-15"/>
      <point x="360" y="-6"/>
      <point x="370" y="11" type="curve" smooth="yes"/>
      <point x="375" y="20"/>
      <point x="377" y="27"/>
      <point x="377" y="37" type="curve" smooth="yes"/>
      <point x="377" y="50"/>
      <point x="366" y="60"/>
      <point x="346" y="72" type="curve" smooth="yes"/>
      <point x="180" y="169" type="line"/>
      <point x="344" y="476" type="line" smooth="yes"/>
      <point x="358" y="502"/>
      <point x="363" y="516"/>
      <point x="363" y="531" type="curve" smooth="yes"/>
      <point x="363" y="547"/>
      <point x="354" y="557"/>
      <point x="338" y="566" type="curve" smooth="yes"/>
      <point x="133" y="679" type="line" smooth="yes"/>
      <point x="120" y="686"/>
      <point x="109" y="690"/>
      <point x="100" y="690" type="curve" smooth="yes"/>
      <point x="88" y="690"/>
      <point x="78" y="681"/>
      <point x="68" y="664" type="curve" smooth="yes"/>
      <point x="63" y="655"/>
      <point x="60" y="647"/>
      <point x="60" y="639" type="curve" smooth="yes"/>
      <point x="60" y="626"/>
      <point x="72" y="614"/>
      <point x="92" y="603" type="curve" smooth="yes"/>
      <point x="263" y="510" type="line"/>
      <point x="97" y="199" type="line" smooth="yes"/>
      <point x="83" y="173"/>
      <point x="78" y="159"/>
      <point x="78" y="144" type="curve" smooth="yes"/>
      <point x="78" y="128"/>
      <point x="90" y="117"/>
      <point x="106" y="108" type="curve" smooth="yes"/>
      <point x="305" y="-4" type="line" smooth="yes"/>
      <point x="318" y="-11"/>
      <point x="326" y="-15"/>
    </contour>
  </outline>
</glyph>
<glyph name="u10A8D" format="2">
  <advance width="593"/>
  <unicode hex="10A8D"/>
  <outline>
    <contour>
      <point x="132" y="-15" type="curve" smooth="yes"/>
      <point x="146" y="-15"/>
      <point x="155" y="-3"/>
      <point x="164" y="11" type="curve" smooth="yes"/>
      <point x="354" y="311" type="line"/>
      <point x="478" y="11" type="line" smooth="yes"/>
      <point x="485" y="-6"/>
      <point x="495" y="-15"/>
      <point x="516" y="-15" type="curve" smooth="yes"/>
      <point x="524" y="-15"/>
      <point x="531" y="-13"/>
      <point x="539" y="-10" type="curve" smooth="yes"/>
      <point x="555" y="-4"/>
      <point x="563" y="5"/>
      <point x="563" y="20" type="curve" smooth="yes"/>
      <point x="563" y="27"/>
      <point x="561" y="37"/>
      <point x="557" y="46" type="curve" smooth="yes"/>
      <point x="404" y="390" type="line"/>
      <point x="432" y="438"/>
      <point x="454" y="488"/>
      <point x="454" y="533" type="curve" smooth="yes"/>
      <point x="454" y="632"/>
      <point x="374" y="680"/>
      <point x="250" y="680" type="curve" smooth="yes"/>
      <point x="71" y="680" type="line" smooth="yes"/>
      <point x="43" y="680"/>
      <point x="30" y="668"/>
      <point x="30" y="640" type="curve" smooth="yes"/>
      <point x="30" y="611"/>
      <point x="43" y="600"/>
      <point x="71" y="600" type="curve" smooth="yes"/>
      <point x="239" y="600" type="line" smooth="yes"/>
      <point x="331" y="600"/>
      <point x="364" y="574"/>
      <point x="364" y="525" type="curve" smooth="yes"/>
      <point x="364" y="479"/>
      <point x="327" y="417"/>
      <point x="290" y="360" type="curve" smooth="yes"/>
      <point x="96" y="60" type="line" smooth="yes"/>
      <point x="87" y="47"/>
      <point x="81" y="37"/>
      <point x="81" y="26" type="curve" smooth="yes"/>
      <point x="81" y="13"/>
      <point x="91" y="2"/>
      <point x="104" y="-6" type="curve" smooth="yes"/>
      <point x="114" y="-12"/>
      <point x="122" y="-15"/>
    </contour>
  </outline>
</glyph>
<glyph name="u10A8E" format="2">
  <advance width="691"/>
  <unicode hex="10A8E"/>
  <outline>
    <contour>
      <point x="346" y="-15" type="curve" smooth="yes"/>
      <point x="384" y="-15"/>
      <point x="389" y="0"/>
      <point x="389" y="36" type="curve" smooth="yes"/>
      <point x="389" y="335" type="line"/>
      <point x="403" y="339"/>
      <point x="417" y="344"/>
      <point x="430" y="351" type="curve"/>
      <point x="576" y="16" type="line" smooth="yes"/>
      <point x="583" y="-1"/>
      <point x="593" y="-10"/>
      <point x="614" y="-10" type="curve" smooth="yes"/>
      <point x="622" y="-10"/>
      <point x="629" y="-8"/>
      <point x="637" y="-5" type="curve" smooth="yes"/>
      <point x="653" y="1"/>
      <point x="661" y="10"/>
      <point x="661" y="25" type="curve" smooth="yes"/>
      <point x="661" y="32"/>
      <point x="659" y="42"/>
      <point x="655" y="51" type="curve" smooth="yes"/>
      <point x="496" y="411" type="line"/>
      <point x="514" y="439"/>
      <point x="524" y="473"/>
      <point x="524" y="510" type="curve" smooth="yes"/>
      <point x="524" y="613"/>
      <point x="443" y="690"/>
      <point x="344" y="690" type="curve" smooth="yes"/>
      <point x="245" y="690"/>
      <point x="165" y="613"/>
      <point x="165" y="510" type="curve" smooth="yes"/>
      <point x="165" y="472"/>
      <point x="176" y="438"/>
      <point x="195" y="409" type="curve"/>
      <point x="36" y="51" type="line" smooth="yes"/>
      <point x="32" y="42"/>
      <point x="30" y="32"/>
      <point x="30" y="25" type="curve" smooth="yes"/>
      <point x="30" y="10"/>
      <point x="38" y="1"/>
      <point x="54" y="-5" type="curve" smooth="yes"/>
      <point x="62" y="-8"/>
      <point x="69" y="-10"/>
      <point x="77" y="-10" type="curve" smooth="yes"/>
      <point x="98" y="-10"/>
      <point x="108" y="-1"/>
      <point x="115" y="16" type="curve" smooth="yes"/>
      <point x="261" y="350" type="line"/>
      <point x="273" y="343"/>
      <point x="287" y="338"/>
      <point x="301" y="335" type="curve"/>
      <point x="301" y="36" type="line" smooth="yes"/>
      <point x="301" y="0"/>
      <point x="307" y="-15"/>
    </contour>
    <contour>
      <point x="344" y="410" type="curve" smooth="yes"/>
      <point x="290" y="410"/>
      <point x="248" y="449"/>
      <point x="248" y="510" type="curve" smooth="yes"/>
      <point x="248" y="571"/>
      <point x="290" y="610"/>
      <point x="344" y="610" type="curve" smooth="yes"/>
      <point x="397" y="610"/>
      <point x="440" y="571"/>
      <point x="440" y="510" type="curve" smooth="yes"/>
      <point x="440" y="449"/>
      <point x="397" y="410"/>
    </contour>
  </outline>
</glyph>
<glyph name="u10A8F" format="2">
  <advance width="798"/>
  <unicode hex="10A8F"/>
  <outline>
    <contour>
      <point x="400" y="-15" type="curve" smooth="yes"/>
      <point x="438" y="-15"/>
      <point x="443" y="0"/>
      <point x="443" y="36" type="curve" smooth="yes"/>
      <point x="443" y="185" type="line"/>
      <point x="466" y="190"/>
      <point x="487" y="198"/>
      <point x="506" y="210" type="curve"/>
      <point x="584" y="126" type="line" smooth="yes"/>
      <point x="598" y="111"/>
      <point x="608" y="104"/>
      <point x="619" y="104" type="curve" smooth="yes"/>
      <point x="629" y="104"/>
      <point x="638" y="110"/>
      <point x="648" y="120" type="curve" smooth="yes"/>
      <point x="660" y="132"/>
      <point x="664" y="141"/>
      <point x="664" y="150" type="curve" smooth="yes"/>
      <point x="664" y="160"/>
      <point x="657" y="170"/>
      <point x="645" y="182" type="curve" smooth="yes"/>
      <point x="567" y="265" type="line"/>
      <point x="585" y="289"/>
      <point x="598" y="317"/>
      <point x="604" y="348" type="curve"/>
      <point x="717" y="348" type="line" smooth="yes"/>
      <point x="753" y="348"/>
      <point x="768" y="352"/>
      <point x="768" y="388" type="curve" smooth="yes"/>
      <point x="768" y="423"/>
      <point x="753" y="429"/>
      <point x="717" y="429" type="curve" smooth="yes"/>
      <point x="604" y="429" type="line"/>
      <point x="597" y="466"/>
      <point x="580" y="500"/>
      <point x="556" y="528" type="curve"/>
      <point x="636" y="612" type="line" smooth="yes"/>
      <point x="647" y="624"/>
      <point x="655" y="634"/>
      <point x="655" y="644" type="curve" smooth="yes"/>
      <point x="655" y="653"/>
      <point x="650" y="662"/>
      <point x="638" y="674" type="curve" smooth="yes"/>
      <point x="628" y="684"/>
      <point x="616" y="690"/>
      <point x="608" y="690" type="curve" smooth="yes"/>
      <point x="596" y="690"/>
      <point x="588" y="683"/>
      <point x="574" y="668" type="curve" smooth="yes"/>
      <point x="490" y="578" type="line"/>
      <point x="462" y="591"/>
      <point x="431" y="599"/>
      <point x="398" y="599" type="curve" smooth="yes"/>
      <point x="364" y="599"/>
      <point x="333" y="591"/>
      <point x="304" y="577" type="curve"/>
      <point x="220" y="668" type="line" smooth="yes"/>
      <point x="206" y="683"/>
      <point x="197" y="690"/>
      <point x="185" y="690" type="curve" smooth="yes"/>
      <point x="177" y="690"/>
      <point x="166" y="684"/>
      <point x="156" y="674" type="curve" smooth="yes"/>
      <point x="144" y="662"/>
      <point x="140" y="653"/>
      <point x="140" y="644" type="curve" smooth="yes"/>
      <point x="140" y="634"/>
      <point x="147" y="624"/>
      <point x="159" y="612" type="curve" smooth="yes"/>
      <point x="240" y="526" type="line"/>
      <point x="217" y="499"/>
      <point x="200" y="466"/>
      <point x="193" y="430" type="curve"/>
      <point x="81" y="430" type="line" smooth="yes"/>
      <point x="45" y="430"/>
      <point x="30" y="426"/>
      <point x="30" y="390" type="curve" smooth="yes"/>
      <point x="30" y="355"/>
      <point x="45" y="349"/>
      <point x="81" y="349" type="curve" smooth="yes"/>
      <point x="193" y="349" type="line"/>
      <point x="199" y="318"/>
      <point x="211" y="290"/>
      <point x="229" y="266" type="curve"/>
      <point x="149" y="181" type="line" smooth="yes"/>
      <point x="137" y="169"/>
      <point x="130" y="159"/>
      <point x="130" y="149" type="curve" smooth="yes"/>
      <point x="130" y="140"/>
      <point x="134" y="131"/>
      <point x="146" y="119" type="curve" smooth="yes"/>
      <point x="156" y="109"/>
      <point x="167" y="103"/>
      <point x="176" y="103" type="curve" smooth="yes"/>
      <point x="187" y="103"/>
      <point x="196" y="110"/>
      <point x="210" y="125" type="curve" smooth="yes"/>
      <point x="289" y="210" type="line"/>
      <point x="309" y="198"/>
      <point x="331" y="189"/>
      <point x="355" y="184" type="curve"/>
      <point x="355" y="36" type="line" smooth="yes"/>
      <point x="355" y="0"/>
      <point x="361" y="-15"/>
    </contour>
    <contour>
      <point x="398" y="259" type="curve" smooth="yes"/>
      <point x="326" y="259"/>
      <point x="276" y="317"/>
      <point x="276" y="389" type="curve" smooth="yes"/>
      <point x="276" y="460"/>
      <point x="326" y="519"/>
      <point x="398" y="519" type="curve" smooth="yes"/>
      <point x="469" y="519"/>
      <point x="520" y="460"/>
      <point x="520" y="389" type="curve" smooth="yes"/>
      <point x="520" y="317"/>
      <point x="469" y="259"/>
    </contour>
  </outline>
</glyph>
<glyph name="u10A90" format="2">
  <advance width="795"/>
  <unicode hex="10A90"/>
  <outline>
    <contour>
      <point x="128" y="104" type="curve" smooth="yes"/>
      <point x="148" y="104"/>
      <point x="171" y="119"/>
      <point x="171" y="144" type="curve" smooth="yes"/>
      <point x="171" y="151"/>
      <point x="169" y="157"/>
      <point x="164" y="165" type="curve" smooth="yes"/>
      <point x="155" y="181"/>
      <point x="138" y="215"/>
      <point x="138" y="271" type="curve" smooth="yes"/>
      <point x="138" y="451"/>
      <point x="251" y="530"/>
      <point x="397" y="530" type="curve" smooth="yes"/>
      <point x="543" y="530"/>
      <point x="657" y="451"/>
      <point x="657" y="271" type="curve" smooth="yes"/>
      <point x="657" y="222"/>
      <point x="643" y="187"/>
      <point x="632" y="167" type="curve" smooth="yes"/>
      <point x="626" y="156"/>
      <point x="624" y="150"/>
      <point x="624" y="144" type="curve" smooth="yes"/>
      <point x="624" y="121"/>
      <point x="650" y="104"/>
      <point x="670" y="104" type="curve" smooth="yes"/>
      <point x="721" y="104"/>
      <point x="745" y="216"/>
      <point x="745" y="288" type="curve" smooth="yes"/>
      <point x="745" y="480"/>
      <point x="596" y="610"/>
      <point x="398" y="610" type="curve" smooth="yes"/>
      <point x="205" y="610"/>
      <point x="50" y="487"/>
      <point x="50" y="290" type="curve" smooth="yes"/>
      <point x="50" y="219"/>
      <point x="73" y="104"/>
    </contour>
  </outline>
</glyph>
<glyph name="u10A91" format="2">
  <advance width="704"/>
  <unicode hex="10A91"/>
  <outline>
    <contour>
      <point x="199" y="-15" type="curve" smooth="yes"/>
      <point x="226" y="-15"/>
      <point x="237" y="-3"/>
      <point x="237" y="14" type="curve" smooth="yes"/>
      <point x="237" y="21"/>
      <point x="236" y="29"/>
      <point x="233" y="41" type="curve" smooth="yes"/>
      <point x="136" y="467" type="line"/>
      <point x="568" y="467" type="line"/>
      <point x="472" y="41" type="line" smooth="yes"/>
      <point x="469" y="29"/>
      <point x="468" y="21"/>
      <point x="468" y="14" type="curve" smooth="yes"/>
      <point x="468" y="-3"/>
      <point x="479" y="-15"/>
      <point x="506" y="-15" type="curve" smooth="yes"/>
      <point x="545" y="-15"/>
      <point x="551" y="0"/>
      <point x="559" y="36" type="curve" smooth="yes"/>
      <point x="657" y="474" type="line" smooth="yes"/>
      <point x="661" y="490"/>
      <point x="664" y="505"/>
      <point x="664" y="519" type="curve" smooth="yes"/>
      <point x="664" y="544"/>
      <point x="645" y="547"/>
      <point x="624" y="547" type="curve" smooth="yes"/>
      <point x="512" y="547" type="line"/>
      <point x="512" y="639" type="line" smooth="yes"/>
      <point x="512" y="675"/>
      <point x="507" y="690"/>
      <point x="473" y="690" type="curve" smooth="yes"/>
      <point x="437" y="690"/>
      <point x="431" y="675"/>
      <point x="431" y="639" type="curve" smooth="yes"/>
      <point x="431" y="547" type="line"/>
      <point x="272" y="547" type="line"/>
      <point x="272" y="639" type="line" smooth="yes"/>
      <point x="272" y="675"/>
      <point x="267" y="690"/>
      <point x="232" y="690" type="curve" smooth="yes"/>
      <point x="196" y="690"/>
      <point x="190" y="675"/>
      <point x="190" y="639" type="curve" smooth="yes"/>
      <point x="190" y="547" type="line"/>
      <point x="80" y="547" type="line" smooth="yes"/>
      <point x="55" y="547"/>
      <point x="40" y="539"/>
      <point x="40" y="516" type="curve" smooth="yes"/>
      <point x="40" y="503"/>
      <point x="43" y="488"/>
      <point x="46" y="474" type="curve" smooth="yes"/>
      <point x="146" y="36" type="line" smooth="yes"/>
      <point x="154" y="0"/>
      <point x="160" y="-15"/>
    </contour>
  </outline>
</glyph>
<glyph name="u10A92" format="2">
  <advance width="539"/>
  <unicode hex="10A92"/>
  <outline>
    <contour>
      <point x="269" y="128" type="curve" smooth="yes"/>
      <point x="385" y="128"/>
      <point x="479" y="221"/>
      <point x="479" y="337" type="curve" smooth="yes"/>
      <point x="479" y="453"/>
      <point x="385" y="547"/>
      <point x="269" y="547" type="curve" smooth="yes"/>
      <point x="153" y="547"/>
      <point x="60" y="453"/>
      <point x="60" y="337" type="curve" smooth="yes"/>
      <point x="60" y="221"/>
      <point x="153" y="128"/>
    </contour>
    <contour>
      <point x="269" y="207" type="curve" smooth="yes"/>
      <point x="197" y="207"/>
      <point x="147" y="265"/>
      <point x="147" y="337" type="curve" smooth="yes"/>
      <point x="147" y="408"/>
      <point x="197" y="467"/>
      <point x="269" y="467" type="curve" smooth="yes"/>
      <point x="340" y="467"/>
      <point x="391" y="408"/>
      <point x="391" y="337" type="curve" smooth="yes"/>
      <point x="391" y="265"/>
      <point x="340" y="207"/>
    </contour>
  </outline>
</glyph>
<glyph name="u10A93" format="2">
  <advance width="788"/>
  <unicode hex="10A93"/>
  <outline>
    <contour>
      <point x="148" y="0" type="curve" smooth="yes"/>
      <point x="644" y="0" type="line" smooth="yes"/>
      <point x="660" y="0"/>
      <point x="668" y="8"/>
      <point x="668" y="28" type="curve" smooth="yes"/>
      <point x="668" y="637" type="line" smooth="yes"/>
      <point x="668" y="657"/>
      <point x="660" y="665"/>
      <point x="644" y="665" type="curve" smooth="yes"/>
      <point x="148" y="665" type="line" smooth="yes"/>
      <point x="130" y="665"/>
      <point x="120" y="660"/>
      <point x="120" y="637" type="curve" smooth="yes"/>
      <point x="120" y="28" type="line" smooth="yes"/>
      <point x="120" y="5"/>
      <point x="130" y="0"/>
    </contour>
    <contour>
      <point x="208" y="80" type="line"/>
      <point x="208" y="585" type="line"/>
      <point x="350" y="585" type="line"/>
      <point x="350" y="80" type="line"/>
    </contour>
    <contour>
      <point x="438" y="80" type="line"/>
      <point x="438" y="585" type="line"/>
      <point x="580" y="585" type="line"/>
      <point x="580" y="80" type="line"/>
    </contour>
  </outline>
</glyph>
<glyph name="u10A94" format="2">
  <advance width="536"/>
  <unicode hex="10A94"/>
  <outline>
    <contour>
      <point x="224" y="-15" type="curve" smooth="yes"/>
      <point x="387" y="-15"/>
      <point x="486" y="123"/>
      <point x="486" y="334" type="curve" smooth="yes"/>
      <point x="486" y="543"/>
      <point x="392" y="690"/>
      <point x="224" y="690" type="curve" smooth="yes"/>
      <point x="132" y="690"/>
      <point x="60" y="644"/>
      <point x="60" y="538" type="curve" smooth="yes"/>
      <point x="60" y="476"/>
      <point x="82" y="438"/>
      <point x="107" y="402" type="curve" smooth="yes"/>
      <point x="124" y="378"/>
      <point x="137" y="356"/>
      <point x="137" y="331" type="curve" smooth="yes"/>
      <point x="137" y="309"/>
      <point x="123" y="281"/>
      <point x="106" y="253" type="curve" smooth="yes"/>
      <point x="84" y="217"/>
      <point x="60" y="175"/>
      <point x="60" y="121" type="curve" smooth="yes"/>
      <point x="60" y="23"/>
      <point x="139" y="-15"/>
    </contour>
    <contour>
      <point x="226" y="68" type="curve" smooth="yes"/>
      <point x="175" y="68"/>
      <point x="148" y="91"/>
      <point x="148" y="132" type="curve" smooth="yes"/>
      <point x="148" y="162"/>
      <point x="165" y="193"/>
      <point x="184" y="224" type="curve" smooth="yes"/>
      <point x="204" y="256"/>
      <point x="225" y="291"/>
      <point x="225" y="329" type="curve" smooth="yes"/>
      <point x="225" y="366"/>
      <point x="206" y="399"/>
      <point x="187" y="430" type="curve" smooth="yes"/>
      <point x="168" y="462"/>
      <point x="148" y="497"/>
      <point x="148" y="536" type="curve" smooth="yes"/>
      <point x="148" y="579"/>
      <point x="175" y="608"/>
      <point x="227" y="608" type="curve" smooth="yes"/>
      <point x="347" y="608"/>
      <point x="398" y="484"/>
      <point x="398" y="341" type="curve" smooth="yes"/>
      <point x="398" y="195"/>
      <point x="345" y="68"/>
    </contour>
  </outline>
</glyph>
<glyph name="u10A95" format="2">
  <advance width="675"/>
  <unicode hex="10A95"/>
  <outline>
    <contour>
      <point x="338" y="-15" type="curve" smooth="yes"/>
      <point x="349" y="-15"/>
      <point x="356" y="-12"/>
      <point x="365" y="-4" type="curve" smooth="yes"/>
      <point x="525" y="133" type="line" smooth="yes"/>
      <point x="571" y="173"/>
      <point x="615" y="232"/>
      <point x="615" y="338" type="curve" smooth="yes"/>
      <point x="615" y="434"/>
      <point x="575" y="490"/>
      <point x="524" y="533" type="curve" smooth="yes"/>
      <point x="365" y="669" type="line" smooth="yes"/>
      <point x="356" y="677"/>
      <point x="346" y="680"/>
      <point x="338" y="680" type="curve" smooth="yes"/>
      <point x="315" y="680"/>
      <point x="291" y="653"/>
      <point x="291" y="630" type="curve" smooth="yes"/>
      <point x="291" y="617"/>
      <point x="297" y="611"/>
      <point x="313" y="598" type="curve" smooth="yes"/>
      <point x="444" y="488" type="line" smooth="yes"/>
      <point x="478" y="460"/>
      <point x="524" y="406"/>
      <point x="524" y="336" type="curve" smooth="yes"/>
      <point x="524" y="265"/>
      <point x="491" y="216"/>
      <point x="444" y="177" type="curve" smooth="yes"/>
      <point x="304" y="60" type="line" smooth="yes"/>
      <point x="295" y="52"/>
      <point x="291" y="45"/>
      <point x="291" y="35" type="curve" smooth="yes"/>
      <point x="291" y="12"/>
      <point x="315" y="-15"/>
    </contour>
    <contour>
      <point x="158" y="233" type="line"/>
      <point x="158" y="420" type="line"/>
      <point x="295" y="327" type="line"/>
    </contour>
    <contour>
      <point x="123" y="138" type="curve" smooth="yes"/>
      <point x="143" y="138"/>
      <point x="157" y="146"/>
      <point x="172" y="156" type="curve" smooth="yes"/>
      <point x="357" y="283" type="line" smooth="yes"/>
      <point x="376" y="296"/>
      <point x="385" y="309"/>
      <point x="385" y="330" type="curve" smooth="yes"/>
      <point x="385" y="350"/>
      <point x="374" y="362"/>
      <point x="356" y="374" type="curve" smooth="yes"/>
      <point x="172" y="498" type="line" smooth="yes"/>
      <point x="157" y="508"/>
      <point x="143" y="516"/>
      <point x="123" y="516" type="curve" smooth="yes"/>
      <point x="94" y="516"/>
      <point x="80" y="498"/>
      <point x="80" y="462" type="curve" smooth="yes"/>
      <point x="80" y="184" type="line" smooth="yes"/>
      <point x="80" y="151"/>
      <point x="96" y="138"/>
    </contour>
  </outline>
</glyph>
<glyph name="u10A96" format="2">
  <advance width="787"/>
  <unicode hex="10A96"/>
  <outline>
    <contour>
      <point x="285" y="-15" type="curve" smooth="yes"/>
      <point x="323" y="-15"/>
      <point x="328" y="0"/>
      <point x="328" y="36" type="curve" smooth="yes"/>
      <point x="328" y="585" type="line"/>
      <point x="579" y="585" type="line"/>
      <point x="579" y="36" type="line" smooth="yes"/>
      <point x="579" y="0"/>
      <point x="585" y="-15"/>
      <point x="624" y="-15" type="curve" smooth="yes"/>
      <point x="662" y="-15"/>
      <point x="667" y="0"/>
      <point x="667" y="36" type="curve" smooth="yes"/>
      <point x="667" y="644" type="line" smooth="yes"/>
      <point x="667" y="657"/>
      <point x="656" y="665"/>
      <point x="643" y="665" type="curve" smooth="yes"/>
      <point x="274" y="665" type="line" smooth="yes"/>
      <point x="254" y="665"/>
      <point x="242" y="661"/>
      <point x="230" y="645" type="curve" smooth="yes"/>
      <point x="47" y="410" type="line" smooth="yes"/>
      <point x="37" y="397"/>
      <point x="30" y="386"/>
      <point x="30" y="376" type="curve" smooth="yes"/>
      <point x="30" y="365"/>
      <point x="38" y="354"/>
      <point x="50" y="346" type="curve" smooth="yes"/>
      <point x="60" y="339"/>
      <point x="68" y="335"/>
      <point x="78" y="335" type="curve" smooth="yes"/>
      <point x="92" y="335"/>
      <point x="101" y="344"/>
      <point x="111" y="358" type="curve" smooth="yes"/>
      <point x="240" y="526" type="line"/>
      <point x="240" y="36" type="line" smooth="yes"/>
      <point x="240" y="0"/>
      <point x="246" y="-15"/>
    </contour>
  </outline>
</glyph>
<glyph name="u10A97" format="2">
  <advance width="733"/>
  <unicode hex="10A97"/>
  <outline>
    <contour>
      <point x="490" y="-15" type="curve" smooth="yes"/>
      <point x="504" y="-15"/>
      <point x="512" y="-6"/>
      <point x="523" y="8" type="curve" smooth="yes"/>
      <point x="646" y="165"/>
      <point x="673" y="205"/>
      <point x="673" y="266" type="curve" smooth="yes"/>
      <point x="673" y="376"/>
      <point x="600" y="462"/>
      <point x="428" y="563" type="curve" smooth="yes"/>
      <point x="316" y="629"/>
      <point x="201" y="665"/>
      <point x="127" y="682" type="curve" smooth="yes"/>
      <point x="105" y="687"/>
      <point x="86" y="690"/>
      <point x="68" y="690" type="curve" smooth="yes"/>
      <point x="50" y="690"/>
      <point x="40" y="680"/>
      <point x="40" y="655" type="curve" smooth="yes"/>
      <point x="40" y="627"/>
      <point x="53" y="621"/>
      <point x="81" y="615" type="curve" smooth="yes"/>
      <point x="119" y="607"/>
      <point x="157" y="598"/>
      <point x="196" y="584" type="curve"/>
      <point x="71" y="423" type="line" smooth="yes"/>
      <point x="61" y="410"/>
      <point x="54" y="399"/>
      <point x="54" y="389" type="curve" smooth="yes"/>
      <point x="54" y="378"/>
      <point x="62" y="367"/>
      <point x="74" y="359" type="curve" smooth="yes"/>
      <point x="84" y="352"/>
      <point x="92" y="348"/>
      <point x="102" y="348" type="curve" smooth="yes"/>
      <point x="116" y="348"/>
      <point x="127" y="361"/>
      <point x="135" y="371" type="curve" smooth="yes"/>
      <point x="274" y="553" type="line"/>
      <point x="298" y="542"/>
      <point x="324" y="529"/>
      <point x="351" y="514" type="curve"/>
      <point x="200" y="317" type="line" smooth="yes"/>
      <point x="190" y="304"/>
      <point x="183" y="293"/>
      <point x="183" y="283" type="curve" smooth="yes"/>
      <point x="183" y="272"/>
      <point x="191" y="261"/>
      <point x="203" y="253" type="curve" smooth="yes"/>
      <point x="213" y="246"/>
      <point x="221" y="242"/>
      <point x="231" y="242" type="curve" smooth="yes"/>
      <point x="246" y="242"/>
      <point x="256" y="254"/>
      <point x="264" y="265" type="curve" smooth="yes"/>
      <point x="421" y="472" type="line"/>
      <point x="422" y="471"/>
      <point x="424" y="470"/>
      <point x="426" y="469" type="curve" smooth="yes"/>
      <point x="449" y="454"/>
      <point x="472" y="439"/>
      <point x="493" y="423" type="curve"/>
      <point x="332" y="213" type="line" smooth="yes"/>
      <point x="322" y="200"/>
      <point x="315" y="189"/>
      <point x="315" y="179" type="curve" smooth="yes"/>
      <point x="315" y="168"/>
      <point x="323" y="157"/>
      <point x="335" y="149" type="curve" smooth="yes"/>
      <point x="345" y="142"/>
      <point x="353" y="138"/>
      <point x="363" y="138" type="curve" smooth="yes"/>
      <point x="378" y="138"/>
      <point x="388" y="150"/>
      <point x="396" y="161" type="curve" smooth="yes"/>
      <point x="551" y="366" type="line"/>
      <point x="572" y="339"/>
      <point x="585" y="307"/>
      <point x="585" y="270" type="curve" smooth="yes"/>
      <point x="585" y="218"/>
      <point x="558" y="181"/>
      <point x="459" y="60" type="curve" smooth="yes"/>
      <point x="449" y="47"/>
      <point x="442" y="36"/>
      <point x="442" y="26" type="curve" smooth="yes"/>
      <point x="442" y="15"/>
      <point x="450" y="4"/>
      <point x="462" y="-4" type="curve" smooth="yes"/>
      <point x="472" y="-11"/>
      <point x="480" y="-15"/>
    </contour>
  </outline>
</glyph>
<glyph name="u10A98" format="2">
  <advance width="796"/>
  <unicode hex="10A98"/>
  <outline>
    <contour>
      <point x="224" y="-15" type="curve" smooth="yes"/>
      <point x="251" y="-15"/>
      <point x="262" y="-2"/>
      <point x="262" y="15" type="curve" smooth="yes"/>
      <point x="262" y="22"/>
      <point x="261" y="30"/>
      <point x="258" y="42" type="curve" smooth="yes"/>
      <point x="198" y="306" type="line"/>
      <point x="598" y="306" type="line"/>
      <point x="538" y="42" type="line" smooth="yes"/>
      <point x="535" y="30"/>
      <point x="534" y="22"/>
      <point x="534" y="15" type="curve" smooth="yes"/>
      <point x="534" y="-2"/>
      <point x="545" y="-15"/>
      <point x="572" y="-15" type="curve" smooth="yes"/>
      <point x="611" y="-15"/>
      <point x="617" y="0"/>
      <point x="625" y="36" type="curve" smooth="yes"/>
      <point x="763" y="646" type="line" smooth="yes"/>
      <point x="765" y="654"/>
      <point x="766" y="661"/>
      <point x="766" y="667" type="curve" smooth="yes"/>
      <point x="766" y="682"/>
      <point x="755" y="690"/>
      <point x="727" y="690" type="curve" smooth="yes"/>
      <point x="689" y="690"/>
      <point x="682" y="677"/>
      <point x="675" y="646" type="curve" smooth="yes"/>
      <point x="616" y="386" type="line"/>
      <point x="180" y="386" type="line"/>
      <point x="121" y="646" type="line" smooth="yes"/>
      <point x="114" y="677"/>
      <point x="107" y="690"/>
      <point x="69" y="690" type="curve" smooth="yes"/>
      <point x="41" y="690"/>
      <point x="30" y="682"/>
      <point x="30" y="667" type="curve" smooth="yes"/>
      <point x="30" y="661"/>
      <point x="31" y="654"/>
      <point x="33" y="646" type="curve" smooth="yes"/>
      <point x="171" y="36" type="line" smooth="yes"/>
      <point x="179" y="0"/>
      <point x="185" y="-15"/>
    </contour>
  </outline>
</glyph>
<glyph name="u10A99" format="2">
  <advance width="796"/>
  <unicode hex="10A99"/>
  <outline>
    <contour>
      <point x="224" y="-15" type="curve" smooth="yes"/>
      <point x="251" y="-15"/>
      <point x="262" y="-3"/>
      <point x="262" y="14" type="curve" smooth="yes"/>
      <point x="262" y="21"/>
      <point x="261" y="29"/>
      <point x="258" y="41" type="curve" smooth="yes"/>
      <point x="198" y="306" type="line"/>
      <point x="598" y="306" type="line"/>
      <point x="538" y="41" type="line" smooth="yes"/>
      <point x="535" y="29"/>
      <point x="534" y="21"/>
      <point x="534" y="14" type="curve" smooth="yes"/>
      <point x="534" y="-3"/>
      <point x="545" y="-15"/>
      <point x="572" y="-15" type="curve" smooth="yes"/>
      <point x="611" y="-15"/>
      <point x="617" y="0"/>
      <point x="625" y="36" type="curve" smooth="yes"/>
      <point x="763" y="646" type="line" smooth="yes"/>
      <point x="765" y="654"/>
      <point x="766" y="661"/>
      <point x="766" y="667" type="curve" smooth="yes"/>
      <point x="766" y="682"/>
      <point x="755" y="690"/>
      <point x="727" y="690" type="curve" smooth="yes"/>
      <point x="689" y="690"/>
      <point x="682" y="677"/>
      <point x="675" y="646" type="curve" smooth="yes"/>
      <point x="616" y="386" type="line"/>
      <point x="441" y="386" type="line"/>
      <point x="441" y="646" type="line" smooth="yes"/>
      <point x="441" y="677"/>
      <point x="434" y="690"/>
      <point x="396" y="690" type="curve" smooth="yes"/>
      <point x="358" y="690"/>
      <point x="353" y="675"/>
      <point x="353" y="646" type="curve" smooth="yes"/>
      <point x="353" y="386" type="line"/>
      <point x="180" y="386" type="line"/>
      <point x="121" y="646" type="line" smooth="yes"/>
      <point x="114" y="677"/>
      <point x="107" y="690"/>
      <point x="69" y="690" type="curve" smooth="yes"/>
      <point x="41" y="690"/>
      <point x="30" y="682"/>
      <point x="30" y="667" type="curve" smooth="yes"/>
      <point x="30" y="661"/>
      <point x="31" y="654"/>
      <point x="33" y="646" type="curve" smooth="yes"/>
      <point x="171" y="36" type="line" smooth="yes"/>
      <point x="179" y="0"/>
      <point x="185" y="-15"/>
    </contour>
  </outline>
</glyph>
<glyph name="u10A9A" format="2">
  <advance width="437"/>
  <unicode hex="10A9A"/>
  <outline>
    <contour>
      <point x="219" y="-15" type="curve" smooth="yes"/>
      <point x="257" y="-15"/>
      <point x="262" y="0"/>
      <point x="262" y="36" type="curve" smooth="yes"/>
      <point x="262" y="376" type="line"/>
      <point x="328" y="394"/>
      <point x="377" y="453"/>
      <point x="377" y="531" type="curve" smooth="yes"/>
      <point x="377" y="623"/>
      <point x="305" y="690"/>
      <point x="217" y="690" type="curve" smooth="yes"/>
      <point x="130" y="690"/>
      <point x="60" y="623"/>
      <point x="60" y="531" type="curve" smooth="yes"/>
      <point x="60" y="452"/>
      <point x="108" y="393"/>
      <point x="174" y="376" type="curve"/>
      <point x="174" y="36" type="line" smooth="yes"/>
      <point x="174" y="0"/>
      <point x="180" y="-15"/>
    </contour>
    <contour>
      <point x="217" y="450" type="curve" smooth="yes"/>
      <point x="174" y="450"/>
      <point x="142" y="484"/>
      <point x="142" y="530" type="curve" smooth="yes"/>
      <point x="142" y="576"/>
      <point x="174" y="610"/>
      <point x="217" y="610" type="curve" smooth="yes"/>
      <point x="262" y="610"/>
      <point x="295" y="576"/>
      <point x="295" y="530" type="curve" smooth="yes"/>
      <point x="295" y="484"/>
      <point x="262" y="450"/>
    </contour>
  </outline>
</glyph>
<glyph name="u10A9B" format="2">
  <advance width="539"/>
  <unicode hex="10A9B"/>
  <outline>
    <contour>
      <point x="273" y="-15" type="curve" smooth="yes"/>
      <point x="311" y="-15"/>
      <point x="316" y="0"/>
      <point x="316" y="36" type="curve" smooth="yes"/>
      <point x="316" y="248" type="line"/>
      <point x="382" y="267"/>
      <point x="430" y="325"/>
      <point x="430" y="403" type="curve" smooth="yes"/>
      <point x="430" y="442"/>
      <point x="417" y="477"/>
      <point x="395" y="504" type="curve"/>
      <point x="483" y="615" type="line" smooth="yes"/>
      <point x="493" y="628"/>
      <point x="499" y="638"/>
      <point x="499" y="648" type="curve" smooth="yes"/>
      <point x="499" y="657"/>
      <point x="493" y="666"/>
      <point x="480" y="677" type="curve" smooth="yes"/>
      <point x="469" y="686"/>
      <point x="460" y="690"/>
      <point x="452" y="690" type="curve" smooth="yes"/>
      <point x="440" y="690"/>
      <point x="430" y="681"/>
      <point x="417" y="665" type="curve" smooth="yes"/>
      <point x="328" y="552" type="line"/>
      <point x="310" y="558"/>
      <point x="290" y="562"/>
      <point x="270" y="562" type="curve" smooth="yes"/>
      <point x="249" y="562"/>
      <point x="229" y="558"/>
      <point x="211" y="551" type="curve"/>
      <point x="122" y="665" type="line" smooth="yes"/>
      <point x="109" y="681"/>
      <point x="99" y="690"/>
      <point x="87" y="690" type="curve" smooth="yes"/>
      <point x="79" y="690"/>
      <point x="70" y="686"/>
      <point x="59" y="677" type="curve" smooth="yes"/>
      <point x="46" y="666"/>
      <point x="40" y="657"/>
      <point x="40" y="648" type="curve" smooth="yes"/>
      <point x="40" y="638"/>
      <point x="46" y="628"/>
      <point x="56" y="615" type="curve" smooth="yes"/>
      <point x="146" y="502" type="line"/>
      <point x="125" y="475"/>
      <point x="113" y="441"/>
      <point x="113" y="403" type="curve" smooth="yes"/>
      <point x="113" y="324"/>
      <point x="162" y="265"/>
      <point x="228" y="247" type="curve"/>
      <point x="228" y="36" type="line" smooth="yes"/>
      <point x="228" y="0"/>
      <point x="234" y="-15"/>
    </contour>
    <contour>
      <point x="270" y="322" type="curve" smooth="yes"/>
      <point x="227" y="322"/>
      <point x="195" y="356"/>
      <point x="195" y="402" type="curve" smooth="yes"/>
      <point x="195" y="448"/>
      <point x="227" y="482"/>
      <point x="270" y="482" type="curve" smooth="yes"/>
      <point x="315" y="482"/>
      <point x="348" y="448"/>
      <point x="348" y="402" type="curve" smooth="yes"/>
      <point x="348" y="356"/>
      <point x="315" y="322"/>
    </contour>
  </outline>
</glyph>
<glyph name="u10A9C" format="2">
  <advance width="626"/>
  <unicode hex="10A9C"/>
  <outline>
    <contour>
      <point x="168" y="-15" type="curve" smooth="yes"/>
      <point x="180" y="-15"/>
      <point x="190" y="-6"/>
      <point x="203" y="10" type="curve" smooth="yes"/>
      <point x="265" y="86"/>
      <point x="326" y="163"/>
      <point x="374" y="241" type="curve"/>
      <point x="434" y="232"/>
      <point x="468" y="182"/>
      <point x="468" y="93" type="curve" smooth="yes"/>
      <point x="468" y="36" type="line" smooth="yes"/>
      <point x="468" y="0"/>
      <point x="474" y="-15"/>
      <point x="513" y="-15" type="curve" smooth="yes"/>
      <point x="551" y="-15"/>
      <point x="556" y="0"/>
      <point x="556" y="36" type="curve" smooth="yes"/>
      <point x="556" y="105" type="line" smooth="yes"/>
      <point x="556" y="215"/>
      <point x="503" y="294"/>
      <point x="416" y="316" type="curve"/>
      <point x="451" y="385"/>
      <point x="472" y="454"/>
      <point x="472" y="520" type="curve" smooth="yes"/>
      <point x="472" y="628"/>
      <point x="421" y="690"/>
      <point x="326" y="690" type="curve" smooth="yes"/>
      <point x="261" y="690"/>
      <point x="214" y="662"/>
      <point x="167" y="582" type="curve" smooth="yes"/>
      <point x="42" y="371" type="line" smooth="yes"/>
      <point x="34" y="357"/>
      <point x="30" y="349"/>
      <point x="30" y="340" type="curve" smooth="yes"/>
      <point x="30" y="324"/>
      <point x="40" y="315"/>
      <point x="54" y="308" type="curve" smooth="yes"/>
      <point x="64" y="303"/>
      <point x="73" y="301"/>
      <point x="78" y="301" type="curve" smooth="yes"/>
      <point x="96" y="301"/>
      <point x="104" y="315"/>
      <point x="112" y="329" type="curve" smooth="yes"/>
      <point x="216" y="501" type="line" smooth="yes"/>
      <point x="263" y="579"/>
      <point x="284" y="610"/>
      <point x="326" y="610" type="curve" smooth="yes"/>
      <point x="363" y="610"/>
      <point x="384" y="586"/>
      <point x="384" y="520" type="curve" smooth="yes"/>
      <point x="384" y="408"/>
      <point x="312" y="260"/>
      <point x="137" y="60" type="curve" smooth="yes"/>
      <point x="126" y="47"/>
      <point x="121" y="37"/>
      <point x="121" y="27" type="curve" smooth="yes"/>
      <point x="121" y="18"/>
      <point x="125" y="9"/>
      <point x="138" y="-2" type="curve" smooth="yes"/>
      <point x="149" y="-11"/>
      <point x="157" y="-15"/>
    </contour>
  </outline>
</glyph>
<glyph name="u10A9D" format="2">
  <advance width="328"/>
  <unicode hex="10A9D"/>
  <outline>
    <contour>
      <point x="165" y="-15" type="curve" smooth="yes"/>
      <point x="203" y="-15"/>
      <point x="208" y="0"/>
      <point x="208" y="36" type="curve" smooth="yes"/>
      <point x="208" y="646" type="line" smooth="yes"/>
      <point x="208" y="677"/>
      <point x="201" y="690"/>
      <point x="163" y="690" type="curve" smooth="yes"/>
      <point x="125" y="690"/>
      <point x="120" y="675"/>
      <point x="120" y="646" type="curve" smooth="yes"/>
      <point x="120" y="36" type="line" smooth="yes"/>
      <point x="120" y="0"/>
      <point x="126" y="-15"/>
    </contour>
  </outline>
</glyph>
<glyph name="u10A9E" format="2">
  <advance width="504"/>
  <unicode hex="10A9E"/>
  <outline>
    <contour>
      <point x="252" y="160" type="curve" smooth="yes"/>
      <point x="271" y="160"/>
      <point x="282" y="170"/>
      <point x="305" y="193" type="curve" smooth="yes"/>
      <point x="407" y="294" type="line" smooth="yes"/>
      <point x="430" y="317"/>
      <point x="444" y="333"/>
      <point x="444" y="354" type="curve" smooth="yes"/>
      <point x="444" y="375"/>
      <point x="432" y="388"/>
      <point x="408" y="412" type="curve" smooth="yes"/>
      <point x="298" y="519" type="line" smooth="yes"/>
      <point x="276" y="540"/>
      <point x="267" y="547"/>
      <point x="252" y="547" type="curve" smooth="yes"/>
      <point x="237" y="547"/>
      <point x="227" y="540"/>
      <point x="205" y="519" type="curve" smooth="yes"/>
      <point x="96" y="412" type="line" smooth="yes"/>
      <point x="72" y="388"/>
      <point x="60" y="375"/>
      <point x="60" y="354" type="curve" smooth="yes"/>
      <point x="60" y="332"/>
      <point x="73" y="317"/>
      <point x="96" y="294" type="curve" smooth="yes"/>
      <point x="199" y="193" type="line" smooth="yes"/>
      <point x="221" y="171"/>
      <point x="234" y="160"/>
    </contour>
    <contour>
      <point x="252" y="247" type="line"/>
      <point x="145" y="354" type="line"/>
      <point x="252" y="457" type="line"/>
      <point x="357" y="354" type="line"/>
    </contour>
  </outline>
</glyph>
<glyph name="u10A9F" format="2">
  <advance width="504"/>
  <unicode hex="10A9F"/>
  <outline>
    <contour>
      <point x="252" y="-11" type="curve" smooth="yes"/>
      <point x="271" y="-11"/>
      <point x="282" y="-1"/>
      <point x="305" y="22" type="curve" smooth="yes"/>
      <point x="407" y="123" type="line" smooth="yes"/>
      <point x="430" y="146"/>
      <point x="444" y="162"/>
      <point x="444" y="183" type="curve" smooth="yes"/>
      <point x="444" y="204"/>
      <point x="432" y="217"/>
      <point x="408" y="241" type="curve" smooth="yes"/>
      <point x="310" y="337" type="line"/>
      <point x="407" y="433" type="line" smooth="yes"/>
      <point x="430" y="456"/>
      <point x="444" y="472"/>
      <point x="444" y="493" type="curve" smooth="yes"/>
      <point x="444" y="514"/>
      <point x="432" y="527"/>
      <point x="408" y="551" type="curve" smooth="yes"/>
      <point x="298" y="658" type="line" smooth="yes"/>
      <point x="276" y="679"/>
      <point x="267" y="686"/>
      <point x="252" y="686" type="curve" smooth="yes"/>
      <point x="237" y="686"/>
      <point x="227" y="679"/>
      <point x="205" y="658" type="curve" smooth="yes"/>
      <point x="96" y="551" type="line" smooth="yes"/>
      <point x="72" y="527"/>
      <point x="60" y="514"/>
      <point x="60" y="493" type="curve" smooth="yes"/>
      <point x="60" y="471"/>
      <point x="73" y="456"/>
      <point x="96" y="433" type="curve" smooth="yes"/>
      <point x="194" y="337" type="line"/>
      <point x="96" y="241" type="line" smooth="yes"/>
      <point x="72" y="217"/>
      <point x="60" y="204"/>
      <point x="60" y="183" type="curve" smooth="yes"/>
      <point x="60" y="161"/>
      <point x="73" y="146"/>
      <point x="96" y="123" type="curve" smooth="yes"/>
      <point x="199" y="22" type="line" smooth="yes"/>
      <point x="221" y="0"/>
      <point x="234" y="-11"/>
    </contour>
    <contour>
      <point x="252" y="76" type="line"/>
      <point x="145" y="183" type="line"/>
      <point x="252" y="286" type="line"/>
      <point x="357" y="183" type="line"/>
    </contour>
    <contour>
      <point x="252" y="386" type="line"/>
      <point x="145" y="493" type="line"/>
      <point x="252" y="596" type="line"/>
      <point x="357" y="493" type="line"/>
    </contour>
  </outline>
</glyph>
